<?xml version="1.0" encoding="UTF-8"?>
<svg width="18px" height="18px" viewBox="0 0 18 18" version="1.1" xmlns="http://www.w3.org/2000/svg" xmlns:xlink="http://www.w3.org/1999/xlink">
    <!-- Generator: Sketch 43.1 (39012) - http://www.bohemiancoding.com/sketch -->
    <title>Icon</title>
    <desc>Created with Sketch.</desc>
    <defs></defs>
    <g id="Page-1" stroke="none" stroke-width="1" fill="none" fill-rule="evenodd" opacity="0.900000036">
        <g id="Продукція" transform="translate(-140.000000, -734.000000)" fill="#929DBB">
            <g id="Left-side-panel" transform="translate(31.000000, 96.000000)">
                <g id="Bottom-panel" transform="translate(90.000000, 572.000000)">
                    <g id="Social-Media" transform="translate(0.000000, 54.000000)">
                        <g id="Instagram">
                            <path d="M19,16.9900998 C19,14.2341438 21.2433178,12 23.9900998,12 L32.0099002,12 C34.7658562,12 37,14.2433178 37,16.9900998 L37,25.0099002 C37,27.7658562 34.7566822,30 32.0099002,30 L23.9900998,30 C21.2341438,30 19,27.7566822 19,25.0099002 L19,16.9900998 Z M30.2478465,25.466081 C32.1745389,24.4963229 33.2621276,22.4002936 32.9457338,20.266642 C32.6226664,18.0879852 30.9120148,16.3773336 28.733358,16.0542662 C26.5997064,15.7378724 24.5036771,16.8254611 23.533919,18.7521535 C22.5641609,20.6788458 22.9393155,23.0102504 24.4645326,24.5354674 C25.9897496,26.0606845 28.3211542,26.4358391 30.2478465,25.466081 Z M28.4399911,18.0326331 C29.7471594,18.2264698 30.7735302,19.2528406 30.9673669,20.5600089 C31.1571994,21.8401747 30.504659,23.0977676 29.3486663,23.679611 C28.1926736,24.2614544 26.7938584,24.0363661 25.8787461,23.1212539 C24.9636339,22.2061416 24.7385456,20.8073264 25.320389,19.6513337 C25.9022324,18.495341 27.1598253,17.8428006 28.4399911,18.0326331 Z" id="Icon"></path>
                        </g>
                    </g>
                </g>
            </g>
        </g>
    </g>
</svg>