<?xml version="1.0" encoding="UTF-8"?>
<svg width="26px" height="22px" viewBox="0 0 26 22" version="1.1" xmlns="http://www.w3.org/2000/svg" xmlns:xlink="http://www.w3.org/1999/xlink">
    <!-- Generator: Sketch 43.1 (39012) - http://www.bohemiancoding.com/sketch -->
    <title>Car-icon</title>
    <desc>Created with Sketch.</desc>
    <defs></defs>
    <g id="Page-1" stroke="none" stroke-width="1" fill="none" fill-rule="evenodd">
        <g id="Продукція" transform="translate(-376.000000, -105.000000)" fill-rule="nonzero" fill="#CBD0DF">
            <g id="Right-side" transform="translate(376.000000, 105.000000)">
                <g id="Delivery-info">
                    <path d="M9,18 C9,16.90624 8.09374989,16 7,16 C5.90624991,16 5,16.90624 5,18 C5,19.09374 5.90624991,20 7,20 C8.09374989,20 9,19.09374 9,18 Z M3,10 L9,10 L9,6 L6.53124996,6 C6.46875004,6 6.23437492,6.09376 6.18749998,6.14062 L3.14062503,9.1875 C3.09374989,9.23438 3,9.46876 3,9.53126 L3,10 Z M22,18 C22,16.90624 21.0937501,16 20,16 C18.9062501,16 18,16.90624 18,18 C18,19.09374 18.9062501,20 20,20 C21.0937501,20 22,19.09374 22,18 Z M26,0.999999091 L26,17.0000045 C26,18.1562435 24.8263889,18.0000036 24.0740741,18.0000036 C24.0740741,20.2031216 22.3437499,22 20.2222222,22 C18.1006944,22 16.3703703,20.2031216 16.3703703,18.0000036 L10.5925927,18.0000036 C10.5925927,20.2031216 8.86226854,22 6.74074079,22 C4.61921304,22 2.88888891,20.2031216 2.88888891,18.0000036 L1.92592594,18.0000036 C1.17361106,18.0000036 0,18.1562435 0,17.0000045 C0,16.453125 0.43634265,16.0000055 0.96296297,16.0000055 L0.96296297,10.99999 C0.96296297,9.89063101 0.812499994,8.65625213 1.64004627,7.79687291 L4.61921304,4.70311572 C4.99537038,4.31249608 5.71759251,3.99999636 6.25925931,3.99999636 L8.66666673,3.99999636 L8.66666673,0.999999091 C8.66666673,0.453119588 9.10300919,0 9.6296297,0 L25.037037,0 C25.5636574,0 26,0.453119588 26,0.999999091 Z" id="Icon" transform="translate(13.000000, 11.000000) scale(-1, 1) translate(-13.000000, -11.000000) "></path>
                </g>
            </g>
        </g>
    </g>
</svg>