<?xml version="1.0" encoding="UTF-8"?>
<svg width="17px" height="18px" viewBox="0 0 17 18" version="1.1" xmlns="http://www.w3.org/2000/svg" xmlns:xlink="http://www.w3.org/1999/xlink">
    <!-- Generator: Sketch 43.1 (39012) - http://www.bohemiancoding.com/sketch -->
    <title>Icon</title>
    <desc>Created with Sketch.</desc>
    <defs></defs>
    <g id="Page-1" stroke="none" stroke-width="1" fill="none" fill-rule="evenodd">
        <g id="Продукція" transform="translate(-412.000000, -495.000000)" fill-rule="nonzero" fill="#929DBB">
            <g id="Right-side" transform="translate(376.000000, 105.000000)">
                <g id="Items" transform="translate(0.000000, 70.000000)">
                    <g id="Візитки">
                        <g id="Калькулятор-стоимости-Button" transform="translate(0.000000, 302.000000)">
                            <g id="Content" transform="translate(36.000000, 18.000000)">
                                <path d="M3.92307695,15.4285733 C3.92307695,14.7154009 3.34074513,14.1428599 2.61538464,14.1428599 C1.89002401,14.1428599 1.30769232,14.7154009 1.30769232,15.4285733 C1.30769232,16.1417456 1.89002401,16.7142866 2.61538464,16.7142866 C3.34074513,16.7142866 3.92307695,16.1417456 3.92307695,15.4285733 Z M7.84615391,15.4285733 C7.84615391,14.7154009 7.26382209,14.1428599 6.53846159,14.1428599 C5.81310096,14.1428599 5.23076927,14.7154009 5.23076927,15.4285733 C5.23076927,16.1417456 5.81310096,16.7142866 6.53846159,16.7142866 C7.26382209,16.7142866 7.84615391,16.1417456 7.84615391,15.4285733 Z M3.92307695,11.5714332 C3.92307695,10.8582608 3.34074513,10.2857198 2.61538464,10.2857198 C1.89002401,10.2857198 1.30769232,10.8582608 1.30769232,11.5714332 C1.30769232,12.2845927 1.89002401,12.8571465 2.61538464,12.8571465 C3.34074513,12.8571465 3.92307695,12.2845927 3.92307695,11.5714332 Z M11.7692307,15.4285733 C11.7692307,14.7154009 11.186899,14.1428599 10.4615384,14.1428599 C9.73617791,14.1428599 9.15384609,14.7154009 9.15384609,15.4285733 C9.15384609,16.1417456 9.73617791,16.7142866 10.4615384,16.7142866 C11.186899,16.7142866 11.7692307,16.1417456 11.7692307,15.4285733 Z M7.84615391,11.5714332 C7.84615391,10.8582608 7.26382209,10.2857198 6.53846159,10.2857198 C5.81310096,10.2857198 5.23076927,10.8582608 5.23076927,11.5714332 C5.23076927,12.2845927 5.81310096,12.8571465 6.53846159,12.8571465 C7.26382209,12.8571465 7.84615391,12.2845927 7.84615391,11.5714332 Z M3.92307695,7.7142802 C3.92307695,7.00110786 3.34074513,6.42856684 2.61538464,6.42856684 C1.89002401,6.42856684 1.30769232,7.00110786 1.30769232,7.7142802 C1.30769232,8.42745255 1.89002401,8.99999357 2.61538464,8.99999357 C3.34074513,8.99999357 3.92307695,8.42745255 3.92307695,7.7142802 Z M11.7692307,11.5714332 C11.7692307,10.8582608 11.186899,10.2857198 10.4615384,10.2857198 C9.73617791,10.2857198 9.15384609,10.8582608 9.15384609,11.5714332 C9.15384609,12.2845927 9.73617791,12.8571465 10.4615384,12.8571465 C11.186899,12.8571465 11.7692307,12.2845927 11.7692307,11.5714332 Z M7.84615391,7.7142802 C7.84615391,7.00110786 7.26382209,6.42856684 6.53846159,6.42856684 C5.81310096,6.42856684 5.23076927,7.00110786 5.23076927,7.7142802 C5.23076927,8.42745255 5.81310096,8.99999357 6.53846159,8.99999357 C7.26382209,8.99999357 7.84615391,8.42745255 7.84615391,7.7142802 Z M15.6923077,15.4285733 L15.6923077,11.5714332 C15.6923077,10.8683022 15.0997597,10.2857198 14.3846154,10.2857198 C13.6694712,10.2857198 13.076923,10.8683022 13.076923,11.5714332 L13.076923,15.4285733 C13.076923,16.1317042 13.6694712,16.7142866 14.3846154,16.7142866 C15.0997597,16.7142866 15.6923077,16.1317042 15.6923077,15.4285733 Z M11.7692307,7.7142802 C11.7692307,7.00110786 11.186899,6.42856684 10.4615384,6.42856684 C9.73617791,6.42856684 9.15384609,7.00110786 9.15384609,7.7142802 C9.15384609,8.42745255 9.73617791,8.99999357 10.4615384,8.99999357 C11.186899,8.99999357 11.7692307,8.42745255 11.7692307,7.7142802 Z M15.6923077,4.49999679 L15.6923077,1.92857005 C15.6923077,1.57700459 15.3960336,1.28571337 15.0384615,1.28571337 L1.96153848,1.28571337 C1.6039664,1.28571337 1.30769232,1.57700459 1.30769232,1.92857005 L1.30769232,4.49999679 C1.30769232,4.85156225 1.6039664,5.14285347 1.96153848,5.14285347 L15.0384615,5.14285347 C15.3960336,5.14285347 15.6923077,4.85156225 15.6923077,4.49999679 Z M15.6923077,7.7142802 C15.6923077,7.00110786 15.109976,6.42856684 14.3846154,6.42856684 C13.6592549,6.42856684 13.076923,7.00110786 13.076923,7.7142802 C13.076923,8.42745255 13.6592549,8.99999357 14.3846154,8.99999357 C15.109976,8.99999357 15.6923077,8.42745255 15.6923077,7.7142802 Z M17,1.28571337 L17,16.7142866 C17,17.4174176 16.407452,18 15.6923077,18 L1.30769232,18 C0.592548024,18 0,17.4174176 0,16.7142866 L0,1.28571337 C0,0.582582441 0.592548024,0 1.30769232,0 L15.6923077,0 C16.407452,0 17,0.582582441 17,1.28571337 Z" id="Icon"></path>
                            </g>
                        </g>
                    </g>
                </g>
            </g>
        </g>
    </g>
</svg>